<svg xmlns="http://www.w3.org/2000/svg" width="720" height="360" viewBox="0 0 720 360"><path fill="#fff" d="M0 0h720v360H0z"/><text x="360" y="30" fill="#1d1d1f" font-family="-apple-system, Helvetica" font-size="16" font-weight="600" text-anchor="middle">dotfiles architecture</text><rect width="200" height="44" x="260" y="50" fill="#f0fdf4" stroke="#34c759" stroke-width="1.5" rx="10"/><text x="360" y="77" fill="#34c759" font-family="-apple-system, Helvetica" font-size="13" font-weight="500" text-anchor="middle">dotfiles repo</text><rect width="160" height="40" x="280" y="130" fill="#e8f4fd" stroke="#007aff" stroke-width="1.5" rx="10"/><text x="360" y="155" fill="#007aff" font-family="-apple-system, Helvetica" font-size="12" font-weight="500" text-anchor="middle">install.sh (symlinks)</text><path stroke="#86868b" stroke-width="1.5" marker-end="url(#a)" d="M360 94v36"/><rect width="140" height="32" x="40" y="56" fill="#f5f5f7" stroke="#d2d2d7" rx="8"/><text x="110" y="77" fill="#1d1d1f" font-family="-apple-system, Helvetica" font-size="10" text-anchor="middle">fish/config.fish</text><rect width="140" height="32" x="540" y="56" fill="#f5f5f7" stroke="#d2d2d7" rx="8"/><text x="610" y="77" fill="#1d1d1f" font-family="-apple-system, Helvetica" font-size="10" text-anchor="middle">starship.toml</text><path stroke="#d2d2d7" d="M260 72h-80m280 0h80"/><rect width="150" height="36" x="40" y="220" fill="#fff3e0" stroke="#ff9500" stroke-width="1.5" rx="8"/><text x="115" y="243" fill="#ff9500" font-family="-apple-system, Helvetica" font-size="10" font-weight="500" text-anchor="middle">~/.config/fish/</text><rect width="120" height="36" x="220" y="220" fill="#fff3e0" stroke="#ff9500" stroke-width="1.5" rx="8"/><text x="280" y="243" fill="#ff9500" font-family="-apple-system, Helvetica" font-size="10" font-weight="500" text-anchor="middle">~/.zshrc</text><rect width="150" height="36" x="370" y="220" fill="#fff3e0" stroke="#ff9500" stroke-width="1.5" rx="8"/><text x="445" y="243" fill="#ff9500" font-family="-apple-system, Helvetica" font-size="10" font-weight="500" text-anchor="middle">~/.config/ghostty/</text><rect width="140" height="36" x="550" y="220" fill="#fff3e0" stroke="#ff9500" stroke-width="1.5" rx="8"/><text x="620" y="243" fill="#ff9500" font-family="-apple-system, Helvetica" font-size="10" font-weight="500" text-anchor="middle">~/.config/starship.toml</text><path stroke="#86868b" stroke-width="1.2" marker-end="url(#a)" d="m310 170-195 50"/><path stroke="#86868b" stroke-width="1.2" marker-end="url(#a)" d="m340 170-60 50"/><path stroke="#86868b" stroke-width="1.2" marker-end="url(#a)" d="m380 170 65 50"/><path stroke="#86868b" stroke-width="1.2" marker-end="url(#a)" d="m410 170 210 50"/><rect width="150" height="36" x="40" y="290" fill="#fef2f2" stroke="#ff3b30" stroke-dasharray="4,3" stroke-width="1.5" rx="8"/><text x="115" y="313" fill="#ff3b30" font-family="-apple-system, Helvetica" font-size="10" text-anchor="middle">secrets.fish</text><rect width="150" height="36" x="220" y="290" fill="#fef2f2" stroke="#ff3b30" stroke-dasharray="4,3" stroke-width="1.5" rx="8"/><text x="295" y="313" fill="#ff3b30" font-family="-apple-system, Helvetica" font-size="10" text-anchor="middle">secrets.zsh</text><path stroke="#ff3b30" stroke-dasharray="4,3" marker-end="url(#b)" d="M115 256v34"/><path stroke="#ff3b30" stroke-dasharray="4,3" marker-end="url(#b)" d="m280 256 15 34"/><text x="440" y="313" fill="#86868b" font-family="-apple-system, Helvetica" font-size="10">dashed = not tracked in git</text><defs><marker id="a" markerHeight="6" markerWidth="6" orient="auto-start-reverse" refX="9" refY="5" viewBox="0 0 10 10"><path fill="#86868b" d="m0 0 10 5-10 5z"/></marker><marker id="b" markerHeight="6" markerWidth="6" orient="auto-start-reverse" refX="9" refY="5" viewBox="0 0 10 10"><path fill="#ff3b30" d="m0 0 10 5-10 5z"/></marker></defs></svg>