<svg xmlns="http://www.w3.org/2000/svg" width="200" height="200" viewBox="0 0 200 200"><rect width="200" height="200" fill="#111" rx="40"/><circle cx="60" cy="60" r="4" fill="#a6e3a1" opacity=".3"/><circle cx="100" cy="60" r="4" fill="#a6e3a1" opacity=".3"/><circle cx="140" cy="60" r="4" fill="#a6e3a1" opacity=".3"/><circle cx="60" cy="100" r="4" fill="#89b4fa" opacity=".4"/><circle cx="140" cy="100" r="4" fill="#89b4fa" opacity=".4"/><circle cx="100" cy="100" r="18" fill="none" stroke="#cba6f7" stroke-width="2.5" opacity=".8"/><circle cx="100" cy="100" r="7" fill="#cba6f7" opacity=".8"/><rect width="8" height="8" x="96" y="78" fill="#cba6f7" opacity=".8" rx="1.5"/><rect width="8" height="8" x="96" y="114" fill="#cba6f7" opacity=".8" rx="1.5"/><rect width="8" height="8" x="78" y="96" fill="#cba6f7" opacity=".8" rx="1.5"/><rect width="8" height="8" x="114" y="96" fill="#cba6f7" opacity=".8" rx="1.5"/><path stroke="#a6e3a1" d="m60 60 26 26m54-26-26 26" opacity=".2"/><path stroke="#89b4fa" d="M60 100h18m62 0h-18" opacity=".2"/><circle cx="60" cy="140" r="4" fill="#a6e3a1" opacity=".3"/><circle cx="100" cy="140" r="4" fill="#a6e3a1" opacity=".3"/><circle cx="140" cy="140" r="4" fill="#a6e3a1" opacity=".3"/><path stroke="#a6e3a1" d="m60 140 26-26m54 26-26-26" opacity=".2"/><text x="100" y="172" fill="#888" font-family="SF Mono, Menlo, monospace" font-size="11" opacity=".7" text-anchor="middle">.dotfiles</text></svg>