<svg xmlns="http://www.w3.org/2000/svg" width="700" height="320" style="font-family:monospace;background:#f8fafc;border-radius:12px" viewBox="0 0 700 320"><text x="350" y="28" fill="#1e293b" font-size="13" font-weight="bold" text-anchor="middle">infra -- Infrastructure Monorepo</text><rect width="160" height="36" x="270" y="48" fill="#0071e3" rx="8"/><text x="350" y="70" fill="#fff" font-size="11" font-weight="bold" text-anchor="middle">infra/</text><path stroke="#94a3b8" stroke-dasharray="5,3" stroke-width="1.5" d="m310 84-180 46m200-46-20 46m60-46 100 46m-80-46 220 46"/><rect width="200" height="50" x="30" y="130" fill="#16a34a" rx="8"/><text x="130" y="152" fill="#fff" font-size="11" font-weight="bold" text-anchor="middle">key-value-store</text><text x="130" y="170" fill="#dcfce7" font-size="9" text-anchor="middle">Rust | 444 LOC | Complete</text><rect width="200" height="50" x="240" y="130" fill="#d97706" rx="8"/><text x="340" y="152" fill="#fff" font-size="11" font-weight="bold" text-anchor="middle">search-engine</text><text x="340" y="170" fill="#fef3c7" font-size="9" text-anchor="middle">Python | 196 LOC | Partial</text><rect width="200" height="50" x="450" y="130" fill="#16a34a" rx="8"/><text x="550" y="152" fill="#fff" font-size="11" font-weight="bold" text-anchor="middle">api-gateway</text><text x="550" y="170" fill="#dcfce7" font-size="9" text-anchor="middle">Go | 2244 LOC | Complete</text><rect width="200" height="50" x="250" y="210" fill="#16a34a" rx="8"/><text x="350" y="232" fill="#fff" font-size="11" font-weight="bold" text-anchor="middle">graphics-renderer</text><text x="350" y="250" fill="#dcfce7" font-size="9" text-anchor="middle">Rust | 385 LOC | Complete</text><path stroke="#94a3b8" stroke-dasharray="5,3" stroke-width="1.5" d="M350 84v126"/><rect width="12" height="12" x="30" y="280" fill="#16a34a" rx="3"/><text x="48" y="290" fill="#475569" font-size="9">Complete</text><rect width="12" height="12" x="110" y="280" fill="#d97706" rx="3"/><text x="128" y="290" fill="#475569" font-size="9">Partial</text><text x="550" y="290" fill="#94a3b8" font-size="9" text-anchor="middle">~3,300 LOC total</text></svg>