<svg xmlns="http://www.w3.org/2000/svg" width="200" height="200" viewBox="0 0 200 200"><rect width="200" height="200" fill="#f5f5f7" stroke="#d1d5db" rx="32"/><rect width="90" height="24" x="55" y="52" fill="none" stroke="#2563eb" stroke-width="2" rx="4"/><circle cx="72" cy="64" r="3" fill="#2563eb" opacity=".6"/><circle cx="82" cy="64" r="3" fill="#2563eb" opacity=".4"/><path stroke="#2563eb" stroke-linecap="round" d="M120 60h16m-16 8h16" opacity=".3"/><rect width="90" height="24" x="55" y="82" fill="none" stroke="#2563eb" stroke-width="2" rx="4"/><circle cx="72" cy="94" r="3" fill="#2563eb" opacity=".6"/><circle cx="82" cy="94" r="3" fill="#2563eb" opacity=".3"/><path stroke="#2563eb" stroke-linecap="round" d="M120 90h16m-16 8h16" opacity=".3"/><rect width="90" height="24" x="55" y="112" fill="none" stroke="#2563eb" stroke-width="2" rx="4"/><circle cx="72" cy="124" r="3" fill="#2563eb" opacity=".5"/><circle cx="82" cy="124" r="3" fill="#2563eb" opacity=".5"/><path stroke="#2563eb" stroke-linecap="round" d="M120 118h16m-16 10h16" opacity=".3"/><circle cx="75" cy="158" r="5" fill="none" stroke="#2563eb" stroke-width="1.5" opacity=".5"/><circle cx="100" cy="158" r="5" fill="none" stroke="#2563eb" stroke-width="1.5" opacity=".5"/><circle cx="125" cy="158" r="5" fill="none" stroke="#2563eb" stroke-width="1.5" opacity=".5"/><path stroke="#2563eb" stroke-linecap="round" d="m80 136-5 17m25-17v17m20-17 5 17" opacity=".25"/><path stroke="#2563eb" stroke-linecap="round" stroke-width=".8" d="M80 158h15m10 0h15" opacity=".2"/></svg>