<svg xmlns="http://www.w3.org/2000/svg" width="400" height="300" viewBox="0 0 400 300"><path fill="#fff" d="M0 0h400v300H0z"/><rect width="110" height="40" x="145" y="120" fill="#0071e3" rx="12"/><text x="200" y="145" fill="#fff" font-family="-apple-system, BlinkMacSystemFont, sans-serif" font-size="15" font-weight="600" text-anchor="middle">AppleScripts</text><rect width="100" height="44" x="20" y="20" fill="#f5f5f7" stroke="#d2d2d7" rx="8"/><text x="70" y="40" fill="#1d1d1f" font-family="-apple-system, BlinkMacSystemFont, sans-serif" font-size="11" font-weight="500" text-anchor="middle">Auto-DJ</text><text x="70" y="53" fill="#86868b" font-family="-apple-system, BlinkMacSystemFont, sans-serif" font-size="9" text-anchor="middle">Daemon + Queue</text><path stroke="#d2d2d7" d="m100 64 70 56"/><rect width="100" height="44" x="150" y="15" fill="#f5f5f7" stroke="#d2d2d7" rx="8"/><text x="200" y="35" fill="#1d1d1f" font-family="-apple-system, BlinkMacSystemFont, sans-serif" font-size="11" font-weight="500" text-anchor="middle">Playlist Ops</text><text x="200" y="48" fill="#86868b" font-family="-apple-system, BlinkMacSystemFont, sans-serif" font-size="9" text-anchor="middle">25+ commands</text><path stroke="#d2d2d7" d="M200 59v61"/><rect width="100" height="44" x="280" y="20" fill="#f5f5f7" stroke="#d2d2d7" rx="8"/><text x="330" y="40" fill="#1d1d1f" font-family="-apple-system, BlinkMacSystemFont, sans-serif" font-size="11" font-weight="500" text-anchor="middle">Apple Music</text><text x="330" y="53" fill="#86868b" font-family="-apple-system, BlinkMacSystemFont, sans-serif" font-size="9" text-anchor="middle">osascript bridge</text><path stroke="#d2d2d7" d="m290 55-55 65"/><rect width="100" height="44" x="20" y="220" fill="#f5f5f7" stroke="#d2d2d7" rx="8"/><text x="70" y="240" fill="#1d1d1f" font-family="-apple-system, BlinkMacSystemFont, sans-serif" font-size="11" font-weight="500" text-anchor="middle">Library</text><text x="70" y="253" fill="#86868b" font-family="-apple-system, BlinkMacSystemFont, sans-serif" font-size="9" text-anchor="middle">Tracks + Metadata</text><path stroke="#d2d2d7" d="m100 220 75-60"/><rect width="100" height="44" x="150" y="235" fill="#f5f5f7" stroke="#d2d2d7" rx="8"/><text x="200" y="255" fill="#1d1d1f" font-family="-apple-system, BlinkMacSystemFont, sans-serif" font-size="11" font-weight="500" text-anchor="middle">Shortcuts</text><text x="200" y="268" fill="#86868b" font-family="-apple-system, BlinkMacSystemFont, sans-serif" font-size="9" text-anchor="middle">macOS Integration</text><path stroke="#d2d2d7" d="M200 235v-75"/><rect width="100" height="44" x="280" y="220" fill="#f5f5f7" stroke="#d2d2d7" rx="8"/><text x="330" y="240" fill="#1d1d1f" font-family="-apple-system, BlinkMacSystemFont, sans-serif" font-size="11" font-weight="500" text-anchor="middle">Rating Engine</text><text x="330" y="253" fill="#86868b" font-family="-apple-system, BlinkMacSystemFont, sans-serif" font-size="9" text-anchor="middle">Stars + Grading</text><path stroke="#d2d2d7" d="m290 225-65-65"/></svg>